<svg width="96" height="96" viewBox="0 0 96 96" fill="none" xmlns="http://www.w3.org/2000/svg">
<path d="M48 0C21.504 0 0 21.504 0 48C0 74.496 21.504 96 48 96C74.496 96 96 74.496 96 48C96 21.504 74.496 0 48 0ZM48 14.4C55.968 14.4 62.4 20.832 62.4 28.8C62.4 36.768 55.968 43.2 48 43.2C40.032 43.2 33.6 36.768 33.6 28.8C33.6 20.832 40.032 14.4 48 14.4ZM48 82.56C36 82.56 25.392 76.416 19.2 67.104C19.344 57.552 38.4 52.32 48 52.32C57.552 52.32 76.656 57.552 76.8 67.104C70.608 76.416 60 82.56 48 82.56Z" fill="#59B7C5"/>
</svg>
