<svg width="24" height="24" viewBox="0 0 24 24" fill="none" xmlns="http://www.w3.org/2000/svg">
<circle cx="12" cy="12" r="11.5" fill="white" stroke="#CCCCCC"/>
<path d="M12 14.1333C13.1782 14.1333 14.1334 13.1782 14.1334 12C14.1334 10.8218 13.1782 9.86667 12 9.86667C10.8218 9.86667 9.8667 10.8218 9.8667 12C9.8667 13.1782 10.8218 14.1333 12 14.1333Z" fill="#2CA2AB"/>
<path d="M10.0002 5.33334L8.78016 6.66668H6.66683C5.9335 6.66668 5.3335 7.26668 5.3335 8.00001V16C5.3335 16.7333 5.9335 17.3333 6.66683 17.3333H17.3335C18.0668 17.3333 18.6668 16.7333 18.6668 16V8.00001C18.6668 7.26668 18.0668 6.66668 17.3335 6.66668H15.2202L14.0002 5.33334H10.0002ZM12.0002 15.3333C10.1602 15.3333 8.66683 13.84 8.66683 12C8.66683 10.16 10.1602 8.66668 12.0002 8.66668C13.8402 8.66668 15.3335 10.16 15.3335 12C15.3335 13.84 13.8402 15.3333 12.0002 15.3333Z" fill="#2CA2AB"/>
</svg>
